<svg id="logoTH350px" xmlns="http://www.w3.org/2000/svg" xmlns:xlink="http://www.w3.org/1999/xlink" width="261.205" height="45.337" viewBox="0 0 261.205 45.337">
  <defs>
    <clipPath id="clip-path">
      <rect id="Rectangle_2" data-name="Rectangle 2" width="261.205" height="45.337" fill="none"/>
    </clipPath>
  </defs>
  <g id="Group_1" data-name="Group 1" clip-path="url(#clip-path)">
    <path id="Path_1" data-name="Path 1" d="M61.281,36.855c0,1.244,0,5.64,4.438,5.64,2.311,0,3.744-1.2,3.976-3.378h8.092c-.648,5.824-6.1,8.095-12.116,8.095-8.092,0-12.439-4.07-12.439-11.743,0-7.772,3.792-12.812,12.347-12.812,6.473,0,9.479,2.635,11.049,5.92,1.019,1.988,1.295,4.208,1.295,8.279Zm8.461-4.716c-.092-1.345-.372-4.859-4.162-4.859s-4.115,3.746-4.209,4.859Z" transform="translate(-4.521 -1.924)" fill="#009a3d"/>
    <path id="Path_2" data-name="Path 2" d="M85.4,28.5l-.231-4.949h8.461l.139,4.81c1.988-5.179,6.194-5.04,8.184-4.994v7.448a17.777,17.777,0,0,0-1.85-.139c-5.317,0-6.059,3.743-6.059,6.242v9.85H85.4Z" transform="translate(-7.233 -1.983)" fill="#009a3d"/>
    <path id="Path_3" data-name="Path 3" d="M107.833,28.787c0-.56-.184-4.583-.184-5.275h8.6l.092,3.838a8.324,8.324,0,0,1,7.861-4.392c1.341,0,5.78.232,7.3,4.3a9.2,9.2,0,0,1,8.185-4.345A8.229,8.229,0,0,1,147,26.517c1.245,1.987,1.245,4.81,1.245,7.493V46.726h-8.692V33.593c0-2.356,0-5.133-3.469-5.133a3.431,3.431,0,0,0-3.238,1.943,7.1,7.1,0,0,0-.462,3.284v13.04h-8.691V33.5c0-2.082,0-5.038-3.469-5.038-2.959,0-3.7,2.45-3.7,5.038V46.726h-8.694Z" transform="translate(-9.143 -1.946)" fill="#009a3d"/>
    <path id="Path_4" data-name="Path 4" d="M170.607,22.708c7.536,0,13.406,3.792,13.406,12.025a12.844,12.844,0,0,1-3.377,9.2c-1.937,1.9-4.8,3.334-9.567,3.334-5.132,0-8.462-1.252-10.731-3.424a11.859,11.859,0,0,1-3.33-8.83c0-7.126,4.4-12.3,13.6-12.3m-3.469,17.849a3.6,3.6,0,0,0,3.375,1.853c3.791,0,4.53-4.119,4.53-7.359,0-4.021-.971-7.4-4.435-7.4-3.839,0-4.582,3.933-4.582,7.4a11.636,11.636,0,0,0,1.113,5.506" transform="translate(-13.335 -1.929)" fill="#009a3d"/>
    <path id="Path_5" data-name="Path 5" d="M191.453,28.787c0-.56-.189-4.583-.189-5.275h8.6l.094,3.838a8.324,8.324,0,0,1,7.858-4.392c1.345,0,5.781.232,7.309,4.3a9.2,9.2,0,0,1,8.181-4.345,8.219,8.219,0,0,1,7.308,3.607c1.245,1.987,1.245,4.81,1.245,7.493V46.726h-8.688V33.593c0-2.356,0-5.133-3.471-5.133a3.426,3.426,0,0,0-3.236,1.943A7.1,7.1,0,0,0,216,33.687v13.04h-8.689V33.5c0-2.082,0-5.038-3.471-5.038-2.959,0-3.7,2.45-3.7,5.038V46.726h-8.694Z" transform="translate(-16.245 -1.946)" fill="#009a3d"/>
    <path id="Path_6" data-name="Path 6" d="M257.165,23.567h10.128l2.961,7.124,3.1-7.124h8.876l-7.122,11.1,7.864,12.119H272.706l-3.657-8.605-3.84,8.605H256.24l7.816-12.119Z" transform="translate(-21.763 -2.002)" fill="#009a3d"/>
    <path id="Path_7" data-name="Path 7" d="M0,39.522c0,4.487,1.386,6.8,8.323,6.8a31.658,31.658,0,0,0,5.641-.413V40.451a14,14,0,0,1-2.174.135c-3.33,0-3.33-1.292-3.377-4.16V28.38h5.6V22.832h-5.6V13.737L0,17.067Z" transform="translate(0 -1.167)" fill="#009a3d"/>
    <path id="Path_8" data-name="Path 8" d="M37.3,45.849h8.631V32.371c0-3.227,0-5.77-2.307-7.842a9.214,9.214,0,0,0-6.461-2.354,9.533,9.533,0,0,0-7.246,3.045l-.008-3.085c0-5.326-1.755-8.775-8.76-9.606V45.849h8.678V35.378a23.951,23.951,0,0,1,.23-4.479A3.674,3.674,0,0,1,33.7,27.668c3.6,0,3.6,3.784,3.6,5.726Z" transform="translate(-1.796 -1.064)" fill="#009a3d"/>
    <path id="Path_9" data-name="Path 9" d="M249.228,27.2a9.6,9.6,0,0,1-6.917-2.822v22.48h8.674v-19.8c-.031,0-1.215.141-1.757.141" transform="translate(-20.58 -2.07)" fill="#009a3d"/>
    <path id="Path_10" data-name="Path 10" d="M248.677,13.965l1.093-.393c4.419-1.6,6.319-4.07,5.81-7.563a9.509,9.509,0,0,0-.507-1.951c-1.237,1.366-6.389,2.933-6.389,2.933V6.985l-.4-1.094c-1.6-4.417-4.071-6.319-7.569-5.81a9.358,9.358,0,0,0-1.947.509C240.139,1.823,241.7,6.98,241.7,6.98l-1.1.393c-4.415,1.6-6.316,4.071-5.806,7.567a9.124,9.124,0,0,0,.509,1.947c1.23-1.368,6.387-2.923,6.387-2.923h.006l.389,1.092c1.6,4.42,4.072,6.32,7.569,5.813a9.555,9.555,0,0,0,1.947-.511c-1.366-1.234-2.928-6.392-2.928-6.392v0Z" transform="translate(-19.935 0)" fill="#009a3d"/>
  </g>
</svg>
