<svg id="ic-WA25px" xmlns="http://www.w3.org/2000/svg" xmlns:xlink="http://www.w3.org/1999/xlink" width="25" height="25.12" viewBox="0 0 25 25.12">
  <defs>
    <clipPath id="clip-path">
      <rect id="Rectangle_1800" data-name="Rectangle 1800" width="25" height="25.12" fill="#fff"/>
    </clipPath>
  </defs>
  <g id="Group_11221" data-name="Group 11221" clip-path="url(#clip-path)">
    <path id="Path_22206" data-name="Path 22206" d="M21.358,3.65A12.451,12.451,0,0,0,1.766,18.669L0,25.119l6.6-1.731A12.436,12.436,0,0,0,12.547,24.9h.005A12.453,12.453,0,0,0,21.358,3.65M12.552,22.8h0a10.33,10.33,0,0,1-5.266-1.442L6.9,21.135,2.989,22.162l1.045-3.818-.246-.391A10.346,10.346,0,1,1,12.552,22.8m5.675-7.749c-.311-.156-1.84-.908-2.125-1.012s-.492-.156-.7.156-.8,1.012-.985,1.22-.363.234-.674.078a8.493,8.493,0,0,1-2.5-1.544A9.373,9.373,0,0,1,9.512,11.8c-.181-.311-.019-.48.136-.635.14-.139.311-.363.467-.545a2.123,2.123,0,0,0,.311-.519.573.573,0,0,0-.026-.545c-.078-.156-.7-1.687-.959-2.309-.252-.606-.509-.524-.7-.534s-.389-.011-.6-.011a1.143,1.143,0,0,0-.829.389A3.489,3.489,0,0,0,6.227,9.681,6.05,6.05,0,0,0,7.5,12.9a13.864,13.864,0,0,0,5.313,4.7,17.866,17.866,0,0,0,1.773.655,4.262,4.262,0,0,0,1.959.123,3.2,3.2,0,0,0,2.1-1.479,2.6,2.6,0,0,0,.181-1.479c-.078-.13-.285-.208-.6-.363" transform="translate(0 0.001)" fill="#fff" fill-rule="evenodd"/>
  </g>
</svg>
