<svg id="logoTH350px" xmlns="http://www.w3.org/2000/svg" xmlns:xlink="http://www.w3.org/1999/xlink" width="350" height="60.749" viewBox="0 0 350 60.749">
  <defs>
    <clipPath id="clip-path">
      <rect id="Rectangle_2" data-name="Rectangle 2" width="350" height="60.749" fill="none"/>
    </clipPath>
  </defs>
  <g id="Group_1" data-name="Group 1" clip-path="url(#clip-path)">
    <path id="Path_1" data-name="Path 1" d="M64.017,41.682c0,1.666,0,7.558,5.947,7.558,3.1,0,5.017-1.611,5.328-4.527H86.134c-.868,7.8-8.18,10.846-16.234,10.846-10.843,0-16.667-5.454-16.667-15.735,0-10.414,5.081-17.167,16.544-17.167,8.674,0,12.7,3.531,14.806,7.932,1.366,2.663,1.735,5.639,1.735,11.093Zm11.337-6.32c-.124-1.8-.5-6.511-5.576-6.511s-5.514,5.02-5.64,6.511Z" transform="translate(12.038 5.124)" fill="#009a3d"/>
    <path id="Path_2" data-name="Path 2" d="M85.476,30.245l-.309-6.631H96.5l.186,6.445c2.663-6.94,8.3-6.754,10.967-6.691v9.98a23.821,23.821,0,0,0-2.479-.186c-7.125,0-8.118,5.015-8.118,8.363v13.2H85.476Z" transform="translate(19.26 5.281)" fill="#009a3d"/>
    <path id="Path_3" data-name="Path 3" d="M107.9,30.784c0-.75-.246-6.141-.246-7.069h11.523l.124,5.142c2.23-4.028,5.823-5.885,10.534-5.885,1.8,0,7.744.31,9.788,5.759a12.333,12.333,0,0,1,10.968-5.822c5.823,0,8.607,3.036,9.792,4.833,1.669,2.662,1.669,6.445,1.669,10.04v17.04H150.4v-17.6c0-3.157,0-6.877-4.648-6.877a4.6,4.6,0,0,0-4.338,2.6c-.369.745-.619,1.731-.619,4.4V54.823H129.148V37.1c0-2.789,0-6.751-4.648-6.751-3.965,0-4.955,3.282-4.955,6.751V54.823H107.9Z" transform="translate(24.344 5.181)" fill="#009a3d"/>
    <path id="Path_4" data-name="Path 4" d="M175.23,22.708c10.1,0,17.963,5.081,17.963,16.113,0,4.516-1.3,9.1-4.524,12.326-2.6,2.543-6.437,4.467-12.819,4.467-6.876,0-11.338-1.677-14.379-4.588-3.59-3.409-4.462-8.056-4.462-11.832,0-9.548,5.889-16.485,18.222-16.485m-4.648,23.917a4.819,4.819,0,0,0,4.522,2.483c5.08,0,6.069-5.519,6.069-9.861,0-5.388-1.3-9.912-5.943-9.912-5.144,0-6.139,5.27-6.139,9.912a15.591,15.591,0,0,0,1.491,7.378" transform="translate(35.505 5.135)" fill="#009a3d"/>
    <path id="Path_5" data-name="Path 5" d="M191.517,30.784c0-.75-.253-6.141-.253-7.069h11.527l.126,5.142c2.233-4.028,5.823-5.885,10.529-5.885,1.8,0,7.747.31,9.793,5.759A12.325,12.325,0,0,1,234.2,22.91c5.824,0,8.616,3.036,9.792,4.833,1.669,2.662,1.669,6.445,1.669,10.04v17.04H234.021v-17.6c0-3.157,0-6.877-4.651-6.877a4.59,4.59,0,0,0-4.336,2.6c-.369.745-.619,1.731-.619,4.4V54.823H212.772V37.1c0-2.789,0-6.751-4.651-6.751-3.965,0-4.955,3.282-4.955,6.751V54.823h-11.65Z" transform="translate(43.252 5.181)" fill="#009a3d"/>
    <path id="Path_6" data-name="Path 6" d="M257.479,23.567H271.05l3.968,9.545,4.149-9.545H291.06l-9.543,14.868,10.537,16.239H278.3l-4.9-11.531-5.145,11.531H256.24l10.474-16.239Z" transform="translate(57.946 5.329)" fill="#009a3d"/>
    <path id="Path_7" data-name="Path 7" d="M0,48.287C0,54.3,1.86,57.4,11.155,57.4a42.42,42.42,0,0,0,7.559-.553V49.532a18.761,18.761,0,0,1-2.913.18c-4.462,0-4.462-1.731-4.524-5.574V33.358h7.5V25.924h-7.5V13.737L0,18.2Z" transform="translate(0 3.106)" fill="#009a3d"/>
    <path id="Path_8" data-name="Path 8" d="M42.79,57.176H54.355V39.116c0-4.325,0-7.731-3.091-10.508a12.346,12.346,0,0,0-8.658-3.154A12.774,12.774,0,0,0,32.9,29.535L32.887,25.4c0-7.136-2.352-11.759-11.738-12.872V57.176H32.776V43.145a32.093,32.093,0,0,1,.308-6c.309-1.245,1.176-4.329,4.886-4.329,4.82,0,4.82,5.07,4.82,7.673Z" transform="translate(4.783 2.834)" fill="#009a3d"/>
    <path id="Path_9" data-name="Path 9" d="M251.579,28.157a12.868,12.868,0,0,1-9.268-3.781V54.5h11.623V27.969c-.042,0-1.628.189-2.354.189" transform="translate(54.796 5.512)" fill="#009a3d"/>
    <path id="Path_10" data-name="Path 10" d="M253.424,18.712l1.464-.526c5.921-2.141,8.468-5.454,7.785-10.134a12.74,12.74,0,0,0-.679-2.614c-1.658,1.831-8.561,3.93-8.561,3.93V9.359l-.53-1.466c-2.142-5.919-5.455-8.468-10.141-7.785a12.54,12.54,0,0,0-2.609.682c1.831,1.653,3.919,8.563,3.919,8.563L242.6,9.88c-5.916,2.142-8.463,5.455-7.78,10.139a12.224,12.224,0,0,0,.682,2.609c1.648-1.833,8.559-3.916,8.559-3.916h.009l.521,1.463c2.146,5.922,5.456,8.469,10.141,7.788a12.8,12.8,0,0,0,2.609-.684c-1.831-1.653-3.924-8.565-3.924-8.565v0Z" transform="translate(53.078 0)" fill="#009a3d"/>
  </g>
</svg>
