<svg id="logoTH130px-header" xmlns="http://www.w3.org/2000/svg" xmlns:xlink="http://www.w3.org/1999/xlink" width="130" height="22.564" viewBox="0 0 130 22.564">
  <defs>
    <clipPath id="clip-path">
      <rect id="Rectangle_2" data-name="Rectangle 2" width="130" height="22.564" fill="none"/>
    </clipPath>
  </defs>
  <g id="Group_1" data-name="Group 1" clip-path="url(#clip-path)">
    <path id="Path_1" data-name="Path 1" d="M57.238,29.723c0,.619,0,2.807,2.209,2.807a1.783,1.783,0,0,0,1.979-1.681h4.027c-.322,2.9-3.038,4.029-6.03,4.029-4.027,0-6.191-2.026-6.191-5.844,0-3.868,1.887-6.376,6.145-6.376,3.222,0,4.718,1.312,5.5,2.946a8.642,8.642,0,0,1,.644,4.12Zm4.211-2.347c-.046-.669-.185-2.418-2.071-2.418s-2.048,1.865-2.095,2.418Z" transform="translate(-28.989 -12.338)" fill="#009a3d"/>
    <path id="Path_2" data-name="Path 2" d="M85.282,25.913l-.115-2.463h4.211l.069,2.394a3.714,3.714,0,0,1,4.073-2.485v3.707A8.848,8.848,0,0,0,92.6,27c-2.646,0-3.015,1.863-3.015,3.106V35h-4.3Z" transform="translate(-46.38 -12.717)" fill="#009a3d"/>
    <path id="Path_3" data-name="Path 3" d="M107.741,25.835c0-.279-.092-2.281-.092-2.626h4.28l.046,1.91a4.143,4.143,0,0,1,3.913-2.186c.668,0,2.876.115,3.636,2.139A4.581,4.581,0,0,1,123.6,22.91a4.1,4.1,0,0,1,3.637,1.8,7.237,7.237,0,0,1,.62,3.729v6.329h-4.326V28.227c0-1.173,0-2.554-1.727-2.554a1.707,1.707,0,0,0-1.611.967,3.535,3.535,0,0,0-.23,1.635v6.49h-4.326V28.18c0-1.036,0-2.508-1.727-2.508-1.473,0-1.84,1.219-1.84,2.508v6.584h-4.327Z" transform="translate(-58.623 -12.476)" fill="#009a3d"/>
    <path id="Path_4" data-name="Path 4" d="M163.776,22.708c3.751,0,6.672,1.887,6.672,5.985a6.393,6.393,0,0,1-1.681,4.578,6.378,6.378,0,0,1-4.761,1.659c-2.554,0-4.211-.623-5.341-1.7a5.9,5.9,0,0,1-1.657-4.395c0-3.546,2.187-6.123,6.768-6.123m-1.727,8.883a1.79,1.79,0,0,0,1.68.922c1.887,0,2.254-2.05,2.254-3.663,0-2-.483-3.682-2.207-3.682-1.91,0-2.28,1.957-2.28,3.682a5.791,5.791,0,0,0,.554,2.74" transform="translate(-85.503 -12.366)" fill="#009a3d"/>
    <path id="Path_5" data-name="Path 5" d="M191.358,25.835c0-.279-.094-2.281-.094-2.626h4.281l.047,1.91a4.143,4.143,0,0,1,3.911-2.186c.669,0,2.877.115,3.637,2.139a4.578,4.578,0,0,1,4.071-2.162,4.09,4.09,0,0,1,3.637,1.8,7.237,7.237,0,0,1,.62,3.729v6.329h-4.324V28.227c0-1.173,0-2.554-1.727-2.554a1.7,1.7,0,0,0-1.61.967,3.535,3.535,0,0,0-.23,1.635v6.49h-4.325V28.18c0-1.036,0-2.508-1.727-2.508-1.473,0-1.84,1.219-1.84,2.508v6.584h-4.327Z" transform="translate(-104.158 -12.476)" fill="#009a3d"/>
    <path id="Path_6" data-name="Path 6" d="M256.7,23.567h5.041l1.474,3.545,1.541-3.545h4.418l-3.545,5.522,3.914,6.032h-5.108l-1.82-4.283L260.7,35.121H256.24l3.89-6.032Z" transform="translate(-139.543 -12.834)" fill="#009a3d"/>
    <path id="Path_7" data-name="Path 7" d="M0,26.57c0,2.233.69,3.383,4.143,3.383a15.756,15.756,0,0,0,2.808-.205V27.032a6.968,6.968,0,0,1-1.082.067c-1.657,0-1.657-.643-1.681-2.07v-4H6.973V18.263H4.189V13.737L0,15.394Z" transform="translate(0 -7.481)" fill="#009a3d"/>
    <path id="Path_8" data-name="Path 8" d="M29.187,29.113h4.3V22.4c0-1.606,0-2.871-1.148-3.9a4.586,4.586,0,0,0-3.216-1.171,4.745,4.745,0,0,0-3.606,1.516l0-1.535c0-2.651-.874-4.368-4.36-4.781V29.113h4.319V23.9a11.92,11.92,0,0,1,.114-2.229A1.829,1.829,0,0,1,27.4,20.064c1.79,0,1.79,1.883,1.79,2.85Z" transform="translate(-11.517 -6.824)" fill="#009a3d"/>
    <path id="Path_9" data-name="Path 9" d="M245.754,25.781a4.779,4.779,0,0,1-3.443-1.4V35.564h4.317V25.71c-.015,0-.6.07-.874.07" transform="translate(-131.957 -13.275)" fill="#009a3d"/>
    <path id="Path_10" data-name="Path 10" d="M241.663,6.95l.544-.2c2.2-.8,3.145-2.026,2.891-3.764a4.732,4.732,0,0,0-.252-.971,11,11,0,0,1-3.18,1.46v0l-.2-.545c-.8-2.2-2.026-3.145-3.767-2.891a4.658,4.658,0,0,0-.969.253c.68.614,1.456,3.181,1.456,3.181l-.546.2c-2.2.8-3.143,2.026-2.89,3.766a4.54,4.54,0,0,0,.253.969c.612-.681,3.179-1.455,3.179-1.455h0l.194.543c.8,2.2,2.027,3.146,3.767,2.893a4.755,4.755,0,0,0,.969-.254c-.68-.614-1.457-3.181-1.457-3.181h0Z" transform="translate(-127.82 0)" fill="#009a3d"/>
  </g>
</svg>
